<svg width="331" height="277" viewBox="0 0 87.577 73.29" xmlns:xlink="http://www.w3.org/1999/xlink" xmlns="http://www.w3.org/2000/svg"><path style="fill:#fff;fill-opacity:1;stroke:#000;stroke-width:.79375;stroke-linecap:round;stroke-linejoin:round" d="M43.168.51a6.411 6.411 0 0 0-6.411 6.412c0 1.592.58 3.049 1.507 4.156a7.018 7.018 0 0 0-2.284 5.211 7.189 7.189 0 0 0 14.378 0 7.09 7.09 0 0 0-2.283-5.232 6.404 6.404 0 0 0 1.505-4.135A6.411 6.411 0 0 0 43.168.511zm0 3.657a2.755 2.755 0 1 1 0 5.51 2.755 2.755 0 0 1 0-5.51zm0 8.851a3.27 3.27 0 1 1 0 6.542 3.27 3.27 0 0 1 0-6.542z"/><use xlink:href="#a" transform="matrix(-1 0 0 1 87.577 0)" width="100%" height="100%"/><g id="a"><path style="fill:#fff;stroke:#000;stroke-width:.79375;stroke-linecap:butt;stroke-linejoin:miter;stroke-miterlimit:4;stroke-dasharray:none;stroke-opacity:1" d="M50.317 94.232c18.773-.139 43.02 10.123 54.083 36.217l-6.881 3.093c.037-.494.077-2.137-.697-3.169-.773-1.031-2.34-1.44-2.672-1.875-.334-.436.173-1.784-3.482-4.784-4.274-3.508-7.814-4.934-17.475-8.839-15.277-6.174-22.876-20.643-22.876-20.643z" transform="translate(-49.57 -82.61)"/><path style="fill:#fff;stroke:#000;stroke-width:.79375;stroke-linecap:butt;stroke-linejoin:miter;stroke-miterlimit:4;stroke-dasharray:none;stroke-opacity:1" d="m97.519 133.542 6.881-3.093c1.434-.617 1.735 1.447.933 1.812.179 1.506 1.584 2.44 2.273 3.791.688 1.352.605 2.566 1.1 3.502 1.108-.44 2.247.573.883 1.672l.626 1.002c1.268-.626 1.995.978.849 1.617l3.887 5.645c.738.28 1.252.653 1.594 1.168.056.946-1.597 2.545-3.823 3.603-2.604 1.237-4.74 1.493-5.884.59.003-.558.22-1.268.53-1.854l-2.093-6.398c-1.068.492-1.915-.791-.64-1.668l-.343-1.128c-1.44.743-2.01-.724-1.218-1.471-.534-1.238-1.687-1.941-2.265-3.292-.577-1.35-.577-2.91-1.517-4.03-1.352.692-2.338-1.168-1.773-1.468z" transform="translate(-49.57 -82.61)"/><path style="fill:none;stroke:#000;stroke-width:.79375;stroke-linecap:butt;stroke-linejoin:miter;stroke-miterlimit:4;stroke-dasharray:none;stroke-opacity:1" d="m111.064 143.845-5.789 2.754m-.64-1.668 5.58-2.703m-.626-1.002-5.297 2.577m-1.218-1.471 5.632-2.778m-1.337 13.443c2.913-.744 5.373-1.987 7.582-3.507m-8.08 4.98c3.432-.627 6.494-2.054 9.27-4.096M99.29 135.01l6.042-2.749m-2.563-1.278c-3.823-10.113-9.754-17.496-18.727-24.56 7.533 7.03 15.092 16.451 17.587 25.232m-49.6-37.482c14.294 24.436 38.49 18.685 41.866 33.485" transform="translate(-49.57 -82.61)"/></g></svg>