<svg xmlns="http://www.w3.org/2000/svg" width="1920" height="1004" viewBox="0 0 1920 1004">
<rect width="100%" height="100%" fill="transparent"/>
<path d="M -90.0 276.8 C 350.0 -8.0, 760.0 504.3, 1110.0 220.4 C 1380.0 -141.9, 1585.0 -115.5, 2010.0 32.6" fill="none" stroke="rgb(194,209,116)" stroke-opacity="0.59" stroke-width="4" stroke-linecap="round"/>
<path d="M -90.0 306.8 C 350.0 -20.8, 760.0 531.6, 1110.0 250.3 C 1380.0 -112.6, 1585.0 -96.1, 2010.0 87.8" fill="none" stroke="rgb(133,150,62)" stroke-opacity="0.69" stroke-width="1" stroke-linecap="round"/>
<path d="M -90.0 235.4 C 350.0 -1.6, 760.0 529.8, 1110.0 222.5 C 1380.0 -76.1, 1585.0 -133.2, 2010.0 19.3" fill="none" stroke="rgb(163,180,76)" stroke-opacity="0.48" stroke-width="3" stroke-linecap="round"/>
<path d="M -90.0 315.1 C 350.0 18.5, 760.0 560.5, 1110.0 287.3 C 1380.0 -70.3, 1585.0 -67.6, 2010.0 58.0" fill="none" stroke="rgb(137,154,64)" stroke-opacity="0.58" stroke-width="4" stroke-linecap="round"/>
<path d="M -90.0 326.1 C 350.0 33.6, 760.0 582.3, 1110.0 284.2 C 1380.0 -60.2, 1585.0 -60.3, 2010.0 15.2" fill="none" stroke="rgb(158,175,73)" stroke-opacity="0.51" stroke-width="3" stroke-linecap="round"/>
<path d="M -90.0 313.8 C 350.0 -25.0, 760.0 565.1, 1110.0 332.4 C 1380.0 -73.1, 1585.0 -23.9, 2010.0 41.7" fill="none" stroke="rgb(159,176,74)" stroke-opacity="0.61" stroke-width="3" stroke-linecap="round"/>
<path d="M -90.0 265.3 C 350.0 -28.4, 760.0 564.2, 1110.0 290.5 C 1380.0 -48.3, 1585.0 -55.0, 2010.0 65.7" fill="none" stroke="rgb(152,169,71)" stroke-opacity="0.55" stroke-width="4" stroke-linecap="round"/>
<path d="M -90.0 321.5 C 350.0 48.6, 760.0 580.2, 1110.0 363.3 C 1380.0 -24.2, 1585.0 23.3, 2010.0 206.1" fill="none" stroke="rgb(194,209,116)" stroke-opacity="0.47" stroke-width="2" stroke-linecap="round"/>
<path d="M -90.0 317.6 C 350.0 -8.6, 760.0 565.9, 1110.0 263.1 C 1380.0 -102.3, 1585.0 -112.6, 2010.0 107.9" fill="none" stroke="rgb(122,139,57)" stroke-opacity="0.64" stroke-width="2" stroke-linecap="round"/>
<path d="M -90.0 305.7 C 350.0 12.5, 760.0 606.6, 1110.0 334.1 C 1380.0 -9.5, 1585.0 -0.8, 2010.0 68.2" fill="none" stroke="rgb(154,172,72)" stroke-opacity="0.73" stroke-width="2" stroke-linecap="round"/>
<path d="M -90.0 337.9 C 350.0 12.0, 760.0 601.3, 1110.0 344.2 C 1380.0 -14.9, 1585.0 -25.7, 2010.0 73.1" fill="none" stroke="rgb(169,186,79)" stroke-opacity="0.59" stroke-width="2" stroke-linecap="round"/>
<path d="M -90.0 309.3 C 350.0 3.6, 760.0 650.1, 1110.0 330.6 C 1380.0 -7.2, 1585.0 12.8, 2010.0 161.5" fill="none" stroke="rgb(148,165,69)" stroke-opacity="0.60" stroke-width="2" stroke-linecap="round"/>
<path d="M -90.0 348.3 C 350.0 13.4, 760.0 628.7, 1110.0 366.1 C 1380.0 -39.8, 1585.0 31.0, 2010.0 214.9" fill="none" stroke="rgb(127,144,59)" stroke-opacity="0.74" stroke-width="2" stroke-linecap="round"/>
<path d="M -90.0 357.1 C 350.0 44.3, 760.0 573.6, 1110.0 325.6 C 1380.0 7.3, 1585.0 -19.8, 2010.0 114.7" fill="none" stroke="rgb(136,154,63)" stroke-opacity="0.40" stroke-width="3" stroke-linecap="round"/>
<path d="M -90.0 358.2 C 350.0 63.4, 760.0 582.2, 1110.0 333.6 C 1380.0 -37.9, 1585.0 -20.2, 2010.0 139.5" fill="none" stroke="rgb(194,209,116)" stroke-opacity="0.43" stroke-width="4" stroke-linecap="round"/>
<path d="M -90.0 381.1 C 350.0 53.2, 760.0 589.5, 1110.0 353.8 C 1380.0 -18.0, 1585.0 11.9, 2010.0 119.6" fill="none" stroke="rgb(157,174,73)" stroke-opacity="0.49" stroke-width="1" stroke-linecap="round"/>
<path d="M -90.0 328.6 C 350.0 26.4, 760.0 586.2, 1110.0 330.5 C 1380.0 -0.4, 1585.0 -29.5, 2010.0 138.1" fill="none" stroke="rgb(162,179,75)" stroke-opacity="0.55" stroke-width="3" stroke-linecap="round"/>
<path d="M -90.0 372.5 C 350.0 59.5, 760.0 652.9, 1110.0 316.8 C 1380.0 -32.6, 1585.0 -11.4, 2010.0 157.5" fill="none" stroke="rgb(142,159,66)" stroke-opacity="0.54" stroke-width="1" stroke-linecap="round"/>
<path d="M -90.0 385.7 C 350.0 94.6, 760.0 647.5, 1110.0 404.8 C 1380.0 42.9, 1585.0 40.0, 2010.0 161.4" fill="none" stroke="rgb(163,180,76)" stroke-opacity="0.45" stroke-width="3" stroke-linecap="round"/>
<path d="M -90.0 357.4 C 350.0 49.6, 760.0 626.5, 1110.0 348.9 C 1380.0 -19.9, 1585.0 22.3, 2010.0 184.0" fill="none" stroke="rgb(137,154,64)" stroke-opacity="0.41" stroke-width="2" stroke-linecap="round"/>
<path d="M -90.0 401.9 C 350.0 83.0, 760.0 682.2, 1110.0 372.9 C 1380.0 -0.3, 1585.0 21.6, 2010.0 150.3" fill="none" stroke="rgb(149,166,69)" stroke-opacity="0.52" stroke-width="1" stroke-linecap="round"/>
<path d="M -90.0 352.1 C 350.0 44.0, 760.0 686.4, 1110.0 372.0 C 1380.0 15.8, 1585.0 28.3, 2010.0 190.8" fill="none" stroke="rgb(194,209,116)" stroke-opacity="0.67" stroke-width="2" stroke-linecap="round"/>
<path d="M -90.0 418.4 C 350.0 72.3, 760.0 709.2, 1110.0 420.7 C 1380.0 71.3, 1585.0 56.2, 2010.0 267.1" fill="none" stroke="rgb(160,177,74)" stroke-opacity="0.43" stroke-width="2" stroke-linecap="round"/>
<path d="M -90.0 436.7 C 350.0 113.0, 760.0 700.1, 1110.0 361.9 C 1380.0 -1.8, 1585.0 26.6, 2010.0 124.8" fill="none" stroke="rgb(165,182,77)" stroke-opacity="0.35" stroke-width="1" stroke-linecap="round"/>
<path d="M -90.0 409.0 C 350.0 101.5, 760.0 698.1, 1110.0 421.6 C 1380.0 39.9, 1585.0 68.6, 2010.0 237.7" fill="none" stroke="rgb(155,172,72)" stroke-opacity="0.75" stroke-width="2" stroke-linecap="round"/>
<path d="M -90.0 404.5 C 350.0 65.3, 760.0 731.0, 1110.0 441.0 C 1380.0 100.7, 1585.0 85.2, 2010.0 172.8" fill="none" stroke="rgb(120,137,56)" stroke-opacity="0.50" stroke-width="1" stroke-linecap="round"/>
<path d="M -90.0 369.6 C 350.0 76.5, 760.0 622.2, 1110.0 370.5 C 1380.0 27.6, 1585.0 13.6, 2010.0 211.8" fill="none" stroke="rgb(118,135,54)" stroke-opacity="0.67" stroke-width="1" stroke-linecap="round"/>
<path d="M -90.0 422.7 C 350.0 149.0, 760.0 691.2, 1110.0 413.7 C 1380.0 73.6, 1585.0 77.6, 2010.0 239.8" fill="none" stroke="rgb(149,166,69)" stroke-opacity="0.63" stroke-width="2" stroke-linecap="round"/>
<path d="M -90.0 465.0 C 350.0 161.9, 760.0 733.5, 1110.0 422.6 C 1380.0 97.5, 1585.0 71.3, 2010.0 229.0" fill="none" stroke="rgb(194,209,116)" stroke-opacity="0.45" stroke-width="2" stroke-linecap="round"/>
<path d="M -90.0 413.0 C 350.0 120.8, 760.0 679.9, 1110.0 431.6 C 1380.0 117.8, 1585.0 109.8, 2010.0 209.1" fill="none" stroke="rgb(122,139,56)" stroke-opacity="0.62" stroke-width="3" stroke-linecap="round"/>
<path d="M -90.0 409.1 C 350.0 119.5, 760.0 706.0, 1110.0 389.5 C 1380.0 69.8, 1585.0 55.6, 2010.0 146.2" fill="none" stroke="rgb(147,165,69)" stroke-opacity="0.39" stroke-width="4" stroke-linecap="round"/>
<path d="M -90.0 438.4 C 350.0 128.7, 760.0 690.2, 1110.0 450.4 C 1380.0 75.4, 1585.0 84.8, 2010.0 289.3" fill="none" stroke="rgb(120,137,56)" stroke-opacity="0.76" stroke-width="3" stroke-linecap="round"/>
<path d="M -90.0 420.0 C 350.0 129.4, 760.0 697.2, 1110.0 422.6 C 1380.0 49.1, 1585.0 94.1, 2010.0 179.4" fill="none" stroke="rgb(152,169,71)" stroke-opacity="0.63" stroke-width="2" stroke-linecap="round"/>
<path d="M -90.0 419.7 C 350.0 126.7, 760.0 734.4, 1110.0 432.5 C 1380.0 61.2, 1585.0 94.8, 2010.0 178.3" fill="none" stroke="rgb(153,171,71)" stroke-opacity="0.69" stroke-width="1" stroke-linecap="round"/>
<path d="M -90.0 464.5 C 350.0 116.8, 760.0 706.4, 1110.0 457.3 C 1380.0 104.9, 1585.0 111.0, 2010.0 316.5" fill="none" stroke="rgb(145,162,68)" stroke-opacity="0.75" stroke-width="2" stroke-linecap="round"/>
<path d="M -90.0 448.5 C 350.0 128.0, 760.0 769.7, 1110.0 426.0 C 1380.0 82.9, 1585.0 78.4, 2010.0 241.6" fill="none" stroke="rgb(194,209,116)" stroke-opacity="0.72" stroke-width="2" stroke-linecap="round"/>
<path d="M -90.0 445.9 C 350.0 110.2, 760.0 773.8, 1110.0 485.3 C 1380.0 145.1, 1585.0 155.5, 2010.0 222.6" fill="none" stroke="rgb(124,142,58)" stroke-opacity="0.53" stroke-width="2" stroke-linecap="round"/>
<path d="M -90.0 451.9 C 350.0 163.0, 760.0 723.2, 1110.0 452.0 C 1380.0 63.6, 1585.0 85.8, 2010.0 282.2" fill="none" stroke="rgb(140,157,65)" stroke-opacity="0.57" stroke-width="2" stroke-linecap="round"/>
<path d="M -90.0 503.1 C 350.0 133.0, 760.0 752.5, 1110.0 511.7 C 1380.0 182.3, 1585.0 178.2, 2010.0 297.9" fill="none" stroke="rgb(160,177,75)" stroke-opacity="0.74" stroke-width="3" stroke-linecap="round"/>
<path d="M -90.0 449.1 C 350.0 145.2, 760.0 730.0, 1110.0 459.4 C 1380.0 118.4, 1585.0 136.8, 2010.0 258.5" fill="none" stroke="rgb(124,141,57)" stroke-opacity="0.37" stroke-width="2" stroke-linecap="round"/>
<path d="M -90.0 466.7 C 350.0 167.5, 760.0 724.8, 1110.0 426.5 C 1380.0 98.5, 1585.0 95.3, 2010.0 279.6" fill="none" stroke="rgb(121,139,56)" stroke-opacity="0.59" stroke-width="3" stroke-linecap="round"/>
<path d="M -90.0 472.2 C 350.0 173.6, 760.0 714.3, 1110.0 456.2 C 1380.0 105.8, 1585.0 77.4, 2010.0 204.4" fill="none" stroke="rgb(154,171,72)" stroke-opacity="0.47" stroke-width="3" stroke-linecap="round"/>
<path d="M -90.0 505.4 C 350.0 228.3, 760.0 786.5, 1110.0 539.4 C 1380.0 185.1, 1585.0 182.0, 2010.0 276.3" fill="none" stroke="rgb(194,209,116)" stroke-opacity="0.37" stroke-width="1" stroke-linecap="round"/>
<path d="M -90.0 463.8 C 350.0 207.0, 760.0 757.8, 1110.0 452.9 C 1380.0 129.6, 1585.0 95.8, 2010.0 312.5" fill="none" stroke="rgb(125,142,58)" stroke-opacity="0.36" stroke-width="1" stroke-linecap="round"/>
<path d="M -90.0 502.2 C 350.0 211.6, 760.0 791.2, 1110.0 529.2 C 1380.0 167.7, 1585.0 203.5, 2010.0 318.9" fill="none" stroke="rgb(161,178,75)" stroke-opacity="0.36" stroke-width="3" stroke-linecap="round"/>
<path d="M -90.0 493.6 C 350.0 210.8, 760.0 775.3, 1110.0 492.2 C 1380.0 103.6, 1585.0 148.0, 2010.0 282.7" fill="none" stroke="rgb(140,157,65)" stroke-opacity="0.35" stroke-width="3" stroke-linecap="round"/>
<path d="M -90.0 519.0 C 350.0 254.8, 760.0 780.0, 1110.0 512.6 C 1380.0 178.6, 1585.0 190.5, 2010.0 276.8" fill="none" stroke="rgb(164,181,76)" stroke-opacity="0.76" stroke-width="1" stroke-linecap="round"/>
<path d="M -90.0 540.6 C 350.0 252.0, 760.0 843.7, 1110.0 510.7 C 1380.0 106.9, 1585.0 135.5, 2010.0 274.7" fill="none" stroke="rgb(152,169,71)" stroke-opacity="0.62" stroke-width="2" stroke-linecap="round"/>
<path d="M -90.0 532.1 C 350.0 201.2, 760.0 799.9, 1110.0 491.7 C 1380.0 109.3, 1585.0 150.9, 2010.0 327.6" fill="none" stroke="rgb(142,159,66)" stroke-opacity="0.64" stroke-width="2" stroke-linecap="round"/>
<path d="M -90.0 527.5 C 350.0 208.6, 760.0 801.5, 1110.0 574.4 C 1380.0 205.0, 1585.0 213.0, 2010.0 381.7" fill="none" stroke="rgb(194,209,116)" stroke-opacity="0.40" stroke-width="4" stroke-linecap="round"/>
<path d="M -90.0 515.6 C 350.0 227.1, 760.0 814.7, 1110.0 581.9 C 1380.0 218.0, 1585.0 234.6, 2010.0 363.4" fill="none" stroke="rgb(159,177,74)" stroke-opacity="0.76" stroke-width="3" stroke-linecap="round"/>
<path d="M -90.0 558.1 C 350.0 204.8, 760.0 846.4, 1110.0 517.1 C 1380.0 142.5, 1585.0 141.0, 2010.0 263.4" fill="none" stroke="rgb(130,148,60)" stroke-opacity="0.56" stroke-width="1" stroke-linecap="round"/>
<path d="M -90.0 512.1 C 350.0 280.5, 760.0 806.4, 1110.0 555.4 C 1380.0 190.8, 1585.0 236.1, 2010.0 346.8" fill="none" stroke="rgb(120,138,56)" stroke-opacity="0.41" stroke-width="2" stroke-linecap="round"/>
<path d="M -90.0 560.7 C 350.0 267.1, 760.0 828.9, 1110.0 531.1 C 1380.0 185.9, 1585.0 202.2, 2010.0 323.5" fill="none" stroke="rgb(139,156,65)" stroke-opacity="0.36" stroke-width="3" stroke-linecap="round"/>
<path d="M -90.0 563.3 C 350.0 224.8, 760.0 789.8, 1110.0 537.1 C 1380.0 180.6, 1585.0 173.9, 2010.0 397.2" fill="none" stroke="rgb(170,187,79)" stroke-opacity="0.67" stroke-width="1" stroke-linecap="round"/>
<path d="M -90.0 565.3 C 350.0 237.9, 760.0 842.5, 1110.0 581.9 C 1380.0 266.1, 1585.0 244.7, 2010.0 425.1" fill="none" stroke="rgb(167,184,78)" stroke-opacity="0.42" stroke-width="2" stroke-linecap="round"/>
<path d="M -90.0 543.7 C 350.0 288.0, 760.0 802.0, 1110.0 513.3 C 1380.0 179.3, 1585.0 140.6, 2010.0 325.8" fill="none" stroke="rgb(194,209,116)" stroke-opacity="0.63" stroke-width="1" stroke-linecap="round"/>
<path d="M -90.0 591.7 C 350.0 245.1, 760.0 863.4, 1110.0 604.9 C 1380.0 250.7, 1585.0 251.9, 2010.0 385.8" fill="none" stroke="rgb(165,182,77)" stroke-opacity="0.49" stroke-width="1" stroke-linecap="round"/>
<path d="M -90.0 611.7 C 350.0 268.3, 760.0 885.5, 1110.0 586.3 C 1380.0 181.2, 1585.0 188.9, 2010.0 320.5" fill="none" stroke="rgb(119,137,55)" stroke-opacity="0.64" stroke-width="2" stroke-linecap="round"/>
<path d="M -90.0 616.7 C 350.0 286.9, 760.0 851.4, 1110.0 638.2 C 1380.0 301.7, 1585.0 285.1, 2010.0 513.6" fill="none" stroke="rgb(124,141,57)" stroke-opacity="0.54" stroke-width="3" stroke-linecap="round"/>
<path d="M -90.0 598.7 C 350.0 244.7, 760.0 894.8, 1110.0 567.3 C 1380.0 186.7, 1585.0 226.2, 2010.0 307.8" fill="none" stroke="rgb(163,180,76)" stroke-opacity="0.38" stroke-width="1" stroke-linecap="round"/>
<path d="M -90.0 572.3 C 350.0 262.9, 760.0 856.1, 1110.0 561.0 C 1380.0 168.1, 1585.0 167.0, 2010.0 312.9" fill="none" stroke="rgb(158,175,73)" stroke-opacity="0.43" stroke-width="2" stroke-linecap="round"/>
<path d="M -90.0 615.6 C 350.0 291.2, 760.0 912.7, 1110.0 620.1 C 1380.0 240.5, 1585.0 255.2, 2010.0 486.4" fill="none" stroke="rgb(133,150,62)" stroke-opacity="0.66" stroke-width="1" stroke-linecap="round"/>
<path d="M -90.0 583.4 C 350.0 299.5, 760.0 873.7, 1110.0 559.8 C 1380.0 158.9, 1585.0 228.2, 2010.0 406.5" fill="none" stroke="rgb(194,209,116)" stroke-opacity="0.71" stroke-width="1" stroke-linecap="round"/>
<path d="M -90.0 581.5 C 350.0 281.2, 760.0 890.1, 1110.0 570.7 C 1380.0 179.8, 1585.0 184.9, 2010.0 286.8" fill="none" stroke="rgb(144,162,67)" stroke-opacity="0.37" stroke-width="4" stroke-linecap="round"/>
<path d="M -90.0 598.9 C 350.0 288.9, 760.0 858.7, 1110.0 614.4 C 1380.0 302.4, 1585.0 258.7, 2010.0 356.4" fill="none" stroke="rgb(144,161,67)" stroke-opacity="0.71" stroke-width="1" stroke-linecap="round"/>
<path d="M -90.0 615.7 C 350.0 380.0, 760.0 939.3, 1110.0 668.8 C 1380.0 337.4, 1585.0 320.6, 2010.0 511.2" fill="none" stroke="rgb(139,156,64)" stroke-opacity="0.59" stroke-width="2" stroke-linecap="round"/>
<path d="M -90.0 598.6 C 350.0 290.0, 760.0 881.8, 1110.0 662.1 C 1380.0 336.1, 1585.0 319.0, 2010.0 409.6" fill="none" stroke="rgb(138,155,64)" stroke-opacity="0.69" stroke-width="1" stroke-linecap="round"/>
<path d="M -90.0 603.7 C 350.0 336.0, 760.0 869.8, 1110.0 628.5 C 1380.0 287.0, 1585.0 275.6, 2010.0 445.8" fill="none" stroke="rgb(148,165,69)" stroke-opacity="0.54" stroke-width="1" stroke-linecap="round"/>
<path d="M -90.0 679.2 C 350.0 386.2, 760.0 931.9, 1110.0 638.2 C 1380.0 269.2, 1585.0 256.9, 2010.0 478.5" fill="none" stroke="rgb(141,158,65)" stroke-opacity="0.73" stroke-width="1" stroke-linecap="round"/>
<path d="M -90.0 642.1 C 350.0 371.2, 760.0 936.6, 1110.0 652.1 C 1380.0 298.1, 1585.0 316.1, 2010.0 474.0" fill="none" stroke="rgb(194,209,116)" stroke-opacity="0.62" stroke-width="4" stroke-linecap="round"/>
<path d="M -90.0 629.6 C 350.0 349.3, 760.0 897.9, 1110.0 677.9 C 1380.0 350.1, 1585.0 300.7, 2010.0 517.2" fill="none" stroke="rgb(147,164,68)" stroke-opacity="0.54" stroke-width="1" stroke-linecap="round"/>
<path d="M -90.0 681.8 C 350.0 385.6, 760.0 910.1, 1110.0 646.7 C 1380.0 267.9, 1585.0 272.1, 2010.0 485.6" fill="none" stroke="rgb(140,157,65)" stroke-opacity="0.51" stroke-width="1" stroke-linecap="round"/>
<path d="M -90.0 651.7 C 350.0 342.7, 760.0 982.5, 1110.0 641.1 C 1380.0 273.9, 1585.0 307.4, 2010.0 480.7" fill="none" stroke="rgb(128,146,60)" stroke-opacity="0.62" stroke-width="3" stroke-linecap="round"/>
<path d="M -90.0 668.5 C 350.0 316.0, 760.0 958.7, 1110.0 678.0 C 1380.0 307.4, 1585.0 329.3, 2010.0 470.4" fill="none" stroke="rgb(137,154,64)" stroke-opacity="0.54" stroke-width="4" stroke-linecap="round"/>
<path d="M -90.0 649.2 C 350.0 348.2, 760.0 925.6, 1110.0 706.0 C 1380.0 296.0, 1585.0 334.3, 2010.0 490.2" fill="none" stroke="rgb(137,154,63)" stroke-opacity="0.70" stroke-width="1" stroke-linecap="round"/>
<path d="M -90.0 656.4 C 350.0 312.2, 760.0 983.9, 1110.0 640.3 C 1380.0 226.9, 1585.0 287.7, 2010.0 467.3" fill="none" stroke="rgb(131,149,61)" stroke-opacity="0.68" stroke-width="3" stroke-linecap="round"/>
<path d="M -90.0 694.6 C 350.0 335.8, 760.0 995.4, 1110.0 652.1 C 1380.0 289.5, 1585.0 326.2, 2010.0 461.4" fill="none" stroke="rgb(194,209,116)" stroke-opacity="0.70" stroke-width="2" stroke-linecap="round"/>
<path d="M -90.0 712.9 C 350.0 387.8, 760.0 1000.2, 1110.0 739.5 C 1380.0 411.3, 1585.0 409.5, 2010.0 485.7" fill="none" stroke="rgb(119,137,55)" stroke-opacity="0.59" stroke-width="4" stroke-linecap="round"/>
<path d="M -90.0 678.4 C 350.0 397.4, 760.0 940.5, 1110.0 733.2 C 1380.0 370.8, 1585.0 392.5, 2010.0 587.6" fill="none" stroke="rgb(163,180,76)" stroke-opacity="0.65" stroke-width="1" stroke-linecap="round"/>
<path d="M -90.0 666.0 C 350.0 367.3, 760.0 977.5, 1110.0 676.9 C 1380.0 353.0, 1585.0 331.8, 2010.0 506.6" fill="none" stroke="rgb(165,182,77)" stroke-opacity="0.54" stroke-width="3" stroke-linecap="round"/>
<path d="M -90.0 720.8 C 350.0 404.6, 760.0 976.3, 1110.0 750.0 C 1380.0 384.9, 1585.0 418.6, 2010.0 597.1" fill="none" stroke="rgb(137,155,64)" stroke-opacity="0.73" stroke-width="2" stroke-linecap="round"/>
<path d="M -90.0 728.1 C 350.0 403.5, 760.0 976.6, 1110.0 682.0 C 1380.0 368.2, 1585.0 347.0, 2010.0 488.0" fill="none" stroke="rgb(158,175,73)" stroke-opacity="0.61" stroke-width="2" stroke-linecap="round"/>
<path d="M -90.0 703.5 C 350.0 415.9, 760.0 974.7, 1110.0 711.1 C 1380.0 338.9, 1585.0 364.4, 2010.0 469.6" fill="none" stroke="rgb(130,147,60)" stroke-opacity="0.61" stroke-width="4" stroke-linecap="round"/>
<path d="M -90.0 710.7 C 350.0 379.6, 760.0 986.7, 1110.0 729.5 C 1380.0 367.0, 1585.0 368.2, 2010.0 497.5" fill="none" stroke="rgb(194,209,116)" stroke-opacity="0.63" stroke-width="4" stroke-linecap="round"/>
<path d="M -90.0 738.2 C 350.0 427.0, 760.0 1009.8, 1110.0 700.1 C 1380.0 340.7, 1585.0 346.0, 2010.0 497.2" fill="none" stroke="rgb(163,180,76)" stroke-opacity="0.63" stroke-width="2" stroke-linecap="round"/>
<path d="M -90.0 722.2 C 350.0 447.3, 760.0 1043.8, 1110.0 770.9 C 1380.0 402.8, 1585.0 399.6, 2010.0 533.6" fill="none" stroke="rgb(138,155,64)" stroke-opacity="0.57" stroke-width="1" stroke-linecap="round"/>
<path d="M -90.0 706.7 C 350.0 416.0, 760.0 1036.3, 1110.0 716.2 C 1380.0 349.4, 1585.0 359.0, 2010.0 570.3" fill="none" stroke="rgb(150,167,70)" stroke-opacity="0.47" stroke-width="2" stroke-linecap="round"/>
<path d="M -90.0 750.3 C 350.0 425.5, 760.0 1033.5, 1110.0 770.0 C 1380.0 365.6, 1585.0 410.4, 2010.0 500.5" fill="none" stroke="rgb(144,161,67)" stroke-opacity="0.36" stroke-width="3" stroke-linecap="round"/>
<path d="M -90.0 735.5 C 350.0 413.7, 760.0 1037.1, 1110.0 709.3 C 1380.0 309.2, 1585.0 353.5, 2010.0 462.1" fill="none" stroke="rgb(119,137,55)" stroke-opacity="0.72" stroke-width="4" stroke-linecap="round"/>
<path d="M -90.0 774.5 C 350.0 424.7, 760.0 1067.2, 1110.0 768.5 C 1380.0 426.6, 1585.0 434.3, 2010.0 586.3" fill="none" stroke="rgb(149,166,69)" stroke-opacity="0.62" stroke-width="4" stroke-linecap="round"/>
<path d="M -90.0 719.6 C 350.0 433.4, 760.0 1012.2, 1110.0 766.7 C 1380.0 450.8, 1585.0 407.4, 2010.0 631.5" fill="none" stroke="rgb(194,209,116)" stroke-opacity="0.70" stroke-width="3" stroke-linecap="round"/>
<path d="M -90.0 788.2 C 350.0 506.2, 760.0 1008.5, 1110.0 824.2 C 1380.0 456.4, 1585.0 460.5, 2010.0 597.8" fill="none" stroke="rgb(152,169,71)" stroke-opacity="0.57" stroke-width="2" stroke-linecap="round"/>
<path d="M -90.0 772.3 C 350.0 493.5, 760.0 1041.0, 1110.0 746.0 C 1380.0 405.2, 1585.0 425.7, 2010.0 526.5" fill="none" stroke="rgb(122,140,57)" stroke-opacity="0.46" stroke-width="1" stroke-linecap="round"/>
<path d="M -90.0 794.7 C 350.0 519.8, 760.0 1072.1, 1110.0 823.3 C 1380.0 499.3, 1585.0 498.7, 2010.0 665.1" fill="none" stroke="rgb(121,138,56)" stroke-opacity="0.51" stroke-width="2" stroke-linecap="round"/>
<path d="M -90.0 391.6 C 350.0 96.4, 760.0 618.7, 1110.0 392.6 C 1380.0 26.1, 1585.0 23.6, 2010.0 149.9" fill="none" stroke="rgb(183,198,106)" stroke-opacity="0.50" stroke-width="1" stroke-linecap="round"/>
<path d="M -90.0 397.1 C 350.0 96.7, 760.0 619.9, 1110.0 427.4 C 1380.0 59.4, 1585.0 73.0, 2010.0 211.5" fill="none" stroke="rgb(197,209,135)" stroke-opacity="0.69" stroke-width="1" stroke-linecap="round"/>
<path d="M -90.0 391.1 C 350.0 131.0, 760.0 677.3, 1110.0 422.4 C 1380.0 45.6, 1585.0 80.0, 2010.0 193.8" fill="none" stroke="rgb(195,207,130)" stroke-opacity="0.70" stroke-width="2" stroke-linecap="round"/>
<path d="M -90.0 401.0 C 350.0 129.9, 760.0 694.6, 1110.0 448.9 C 1380.0 108.5, 1585.0 102.2, 2010.0 285.3" fill="none" stroke="rgb(196,208,133)" stroke-opacity="0.42" stroke-width="1" stroke-linecap="round"/>
<path d="M -90.0 411.7 C 350.0 145.5, 760.0 709.9, 1110.0 457.2 C 1380.0 108.2, 1585.0 103.4, 2010.0 217.4" fill="none" stroke="rgb(188,202,116)" stroke-opacity="0.45" stroke-width="2" stroke-linecap="round"/>
<path d="M -90.0 404.5 C 350.0 98.5, 760.0 705.7, 1110.0 390.8 C 1380.0 8.3, 1585.0 46.4, 2010.0 211.9" fill="none" stroke="rgb(182,196,102)" stroke-opacity="0.57" stroke-width="1" stroke-linecap="round"/>
<path d="M -90.0 438.4 C 350.0 163.2, 760.0 715.7, 1110.0 407.5 C 1380.0 37.4, 1585.0 101.4, 2010.0 205.1" fill="none" stroke="rgb(202,213,145)" stroke-opacity="0.56" stroke-width="2" stroke-linecap="round"/>
<path d="M -90.0 430.3 C 350.0 110.7, 760.0 707.8, 1110.0 460.2 C 1380.0 55.4, 1585.0 89.0, 2010.0 173.6" fill="none" stroke="rgb(188,202,117)" stroke-opacity="0.61" stroke-width="1" stroke-linecap="round"/>
<path d="M -90.0 442.4 C 350.0 153.8, 760.0 732.5, 1110.0 501.8 C 1380.0 128.8, 1585.0 152.3, 2010.0 334.9" fill="none" stroke="rgb(186,200,111)" stroke-opacity="0.59" stroke-width="2" stroke-linecap="round"/>
<path d="M -90.0 469.8 C 350.0 161.4, 760.0 721.1, 1110.0 430.2 C 1380.0 59.0, 1585.0 79.5, 2010.0 172.2" fill="none" stroke="rgb(199,210,138)" stroke-opacity="0.66" stroke-width="1" stroke-linecap="round"/>
<path d="M -90.0 503.0 C 350.0 135.9, 760.0 797.0, 1110.0 472.0 C 1380.0 134.7, 1585.0 124.5, 2010.0 306.3" fill="none" stroke="rgb(202,213,145)" stroke-opacity="0.57" stroke-width="2" stroke-linecap="round"/>
<path d="M -90.0 484.6 C 350.0 121.1, 760.0 770.8, 1110.0 508.4 C 1380.0 128.6, 1585.0 137.9, 2010.0 276.3" fill="none" stroke="rgb(190,203,121)" stroke-opacity="0.60" stroke-width="1" stroke-linecap="round"/>
<path d="M -90.0 507.7 C 350.0 162.7, 760.0 764.4, 1110.0 475.7 C 1380.0 87.0, 1585.0 124.3, 2010.0 208.6" fill="none" stroke="rgb(195,207,131)" stroke-opacity="0.72" stroke-width="2" stroke-linecap="round"/>
<path d="M -90.0 464.6 C 350.0 233.8, 760.0 753.4, 1110.0 532.6 C 1380.0 181.6, 1585.0 151.9, 2010.0 341.4" fill="none" stroke="rgb(183,198,106)" stroke-opacity="0.43" stroke-width="1" stroke-linecap="round"/>
<path d="M -90.0 502.6 C 350.0 244.9, 760.0 766.7, 1110.0 523.7 C 1380.0 223.0, 1585.0 193.3, 2010.0 284.0" fill="none" stroke="rgb(185,199,109)" stroke-opacity="0.67" stroke-width="2" stroke-linecap="round"/>
<path d="M -90.0 513.9 C 350.0 233.8, 760.0 786.6, 1110.0 541.4 C 1380.0 215.6, 1585.0 230.1, 2010.0 348.6" fill="none" stroke="rgb(192,205,124)" stroke-opacity="0.68" stroke-width="2" stroke-linecap="round"/>
<path d="M -90.0 498.1 C 350.0 217.6, 760.0 754.0, 1110.0 522.2 C 1380.0 153.6, 1585.0 188.7, 2010.0 341.5" fill="none" stroke="rgb(192,204,124)" stroke-opacity="0.50" stroke-width="1" stroke-linecap="round"/>
<path d="M -90.0 552.0 C 350.0 250.0, 760.0 774.3, 1110.0 503.6 C 1380.0 172.0, 1585.0 172.3, 2010.0 257.5" fill="none" stroke="rgb(200,211,142)" stroke-opacity="0.67" stroke-width="2" stroke-linecap="round"/>
<path d="M -90.0 549.1 C 350.0 227.1, 760.0 787.3, 1110.0 496.7 C 1380.0 117.6, 1585.0 144.8, 2010.0 295.7" fill="none" stroke="rgb(185,199,111)" stroke-opacity="0.65" stroke-width="2" stroke-linecap="round"/>
<path d="M -90.0 514.8 C 350.0 244.7, 760.0 782.6, 1110.0 533.8 C 1380.0 209.4, 1585.0 203.3, 2010.0 350.8" fill="none" stroke="rgb(184,198,107)" stroke-opacity="0.72" stroke-width="2" stroke-linecap="round"/>
<path d="M -90.0 547.6 C 350.0 235.3, 760.0 851.2, 1110.0 535.4 C 1380.0 187.3, 1585.0 160.6, 2010.0 282.8" fill="none" stroke="rgb(194,206,129)" stroke-opacity="0.53" stroke-width="1" stroke-linecap="round"/>
<path d="M -90.0 581.5 C 350.0 282.1, 760.0 827.7, 1110.0 509.9 C 1380.0 133.3, 1585.0 135.7, 2010.0 323.5" fill="none" stroke="rgb(191,204,122)" stroke-opacity="0.50" stroke-width="1" stroke-linecap="round"/>
<path d="M -90.0 564.8 C 350.0 283.8, 760.0 839.1, 1110.0 559.6 C 1380.0 180.5, 1585.0 248.3, 2010.0 303.3" fill="none" stroke="rgb(196,208,133)" stroke-opacity="0.61" stroke-width="1" stroke-linecap="round"/>
<path d="M -90.0 593.9 C 350.0 280.4, 760.0 884.5, 1110.0 537.2 C 1380.0 166.5, 1585.0 171.9, 2010.0 391.3" fill="none" stroke="rgb(187,201,114)" stroke-opacity="0.56" stroke-width="2" stroke-linecap="round"/>
<path d="M -90.0 594.3 C 350.0 288.0, 760.0 884.4, 1110.0 563.4 C 1380.0 156.7, 1585.0 187.7, 2010.0 304.1" fill="none" stroke="rgb(182,197,104)" stroke-opacity="0.55" stroke-width="2" stroke-linecap="round"/>
<path d="M -90.0 597.9 C 350.0 237.2, 760.0 865.6, 1110.0 613.9 C 1380.0 224.2, 1585.0 279.7, 2010.0 399.0" fill="none" stroke="rgb(202,213,146)" stroke-opacity="0.71" stroke-width="1" stroke-linecap="round"/>
<path d="M -90.0 605.3 C 350.0 316.6, 760.0 872.9, 1110.0 648.1 C 1380.0 290.6, 1585.0 338.3, 2010.0 507.3" fill="none" stroke="rgb(200,211,141)" stroke-opacity="0.57" stroke-width="2" stroke-linecap="round"/>
<path d="M -90.0 629.3 C 350.0 327.1, 760.0 886.9, 1110.0 591.1 C 1380.0 215.5, 1585.0 224.4, 2010.0 446.2" fill="none" stroke="rgb(197,209,136)" stroke-opacity="0.52" stroke-width="1" stroke-linecap="round"/>
<path d="M -90.0 663.6 C 350.0 354.2, 760.0 888.2, 1110.0 601.9 C 1380.0 261.4, 1585.0 253.3, 2010.0 404.5" fill="none" stroke="rgb(199,210,138)" stroke-opacity="0.46" stroke-width="1" stroke-linecap="round"/>
<path d="M -90.0 661.3 C 350.0 371.2, 760.0 946.7, 1110.0 681.7 C 1380.0 318.6, 1585.0 327.3, 2010.0 462.3" fill="none" stroke="rgb(188,201,116)" stroke-opacity="0.45" stroke-width="2" stroke-linecap="round"/>
<path d="M -90.0 692.8 C 350.0 373.8, 760.0 913.8, 1110.0 634.6 C 1380.0 285.3, 1585.0 304.6, 2010.0 391.6" fill="none" stroke="rgb(195,207,130)" stroke-opacity="0.68" stroke-width="2" stroke-linecap="round"/>
<path d="M -90.0 631.3 C 350.0 324.9, 760.0 890.7, 1110.0 648.1 C 1380.0 254.3, 1585.0 316.8, 2010.0 411.0" fill="none" stroke="rgb(189,202,118)" stroke-opacity="0.57" stroke-width="1" stroke-linecap="round"/>
</svg>