<svg xmlns="http://www.w3.org/2000/svg" width="443" height="443" viewBox="0 0 443 443" role="img" aria-labelledby="title">
  <title>Arcanumspace favicon icon</title>
  <g fill-rule="evenodd" clip-rule="evenodd">
    <path d="M 208.0 298.0 L 210.0 299.0 L 210.0 298.0 Z M 246.0 267.0 L 248.0 267.0 L 250.0 269.0 L 248.0 266.0 Z" fill="#F2F6FA"/>
    <path d="M 243.0 271.0 L 240.0 271.0 L 237.0 276.0 L 233.0 296.0 L 234.0 298.0 L 233.0 299.0 L 238.0 296.0 L 244.0 288.0 L 244.0 272.0 Z M 200.0 271.0 L 199.0 286.0 L 207.0 297.0 L 210.0 297.0 L 207.0 277.0 L 204.0 272.0 Z M 246.0 268.0 L 248.0 282.0 L 249.0 284.0 L 252.0 284.0 L 253.0 280.0 L 250.0 270.0 L 248.0 268.0 Z M 195.0 266.0 L 191.0 279.0 L 192.0 284.0 L 196.0 283.0 L 197.0 269.0 Z M 253.0 263.0 L 253.0 268.0 L 255.0 271.0 L 257.0 280.0 L 260.0 281.0 L 263.0 279.0 L 263.0 276.0 L 256.0 263.0 Z M 190.0 262.0 L 186.0 264.0 L 181.0 276.0 L 181.0 279.0 L 183.0 281.0 L 187.0 280.0 L 191.0 265.0 Z M 183.0 258.0 L 180.0 259.0 L 174.0 269.0 L 170.0 273.0 L 172.0 276.0 L 176.0 277.0 L 178.0 275.0 L 178.0 273.0 L 183.0 264.0 Z M 261.0 257.0 L 260.0 262.0 L 266.0 274.0 L 268.0 276.0 L 273.0 275.0 L 273.0 271.0 L 270.0 269.0 Z M 177.0 254.0 L 174.0 254.0 L 170.0 257.0 L 161.0 269.0 L 162.0 271.0 L 164.0 272.0 L 168.0 271.0 L 175.0 260.0 Z M 268.0 253.0 L 267.0 254.0 L 268.0 258.0 L 271.0 261.0 L 276.0 270.0 L 278.0 272.0 L 282.0 271.0 L 283.0 268.0 L 280.0 264.0 L 278.0 263.0 L 273.0 256.0 Z M 170.0 248.0 L 166.0 249.0 L 160.0 254.0 L 157.0 255.0 L 150.0 262.0 L 150.0 264.0 L 153.0 267.0 L 157.0 267.0 L 170.0 251.0 Z M 274.0 247.0 L 273.0 249.0 L 287.0 267.0 L 290.0 267.0 L 293.0 265.0 L 294.0 262.0 L 289.0 257.0 Z M 279.0 243.0 L 281.0 246.0 L 286.0 249.0 L 297.0 259.0 L 300.0 259.0 L 306.0 256.0 L 306.0 254.0 L 302.0 253.0 L 283.0 242.0 Z M 164.0 243.0 L 160.0 242.0 L 149.0 249.0 L 140.0 253.0 L 138.0 256.0 L 140.0 258.0 L 146.0 260.0 L 163.0 246.0 Z M 157.0 237.0 L 152.0 236.0 L 149.0 238.0 L 141.0 240.0 L 126.0 248.0 L 125.0 250.0 L 130.0 253.0 L 135.0 252.0 Z M 288.0 238.0 L 301.0 245.0 L 310.0 252.0 L 316.0 252.0 L 318.0 250.0 L 317.0 248.0 L 300.0 239.0 L 295.0 238.0 L 290.0 235.0 Z M 293.0 230.0 L 297.0 234.0 L 323.0 247.0 L 328.0 246.0 L 337.0 241.0 L 335.0 239.0 L 327.0 238.0 L 308.0 232.0 Z M 151.0 231.0 L 150.0 230.0 L 144.0 230.0 L 112.0 239.0 L 107.0 239.0 L 105.0 241.0 L 107.0 243.0 L 117.0 247.0 L 122.0 247.0 L 142.0 236.0 L 151.0 233.0 Z M 301.0 224.0 L 310.0 228.0 L 321.0 230.0 L 344.0 238.0 L 348.0 238.0 L 363.0 231.0 L 363.0 229.0 L 360.0 228.0 L 333.0 225.0 L 332.0 224.0 L 324.0 224.0 L 323.0 223.0 L 302.0 223.0 Z M 142.0 224.0 L 140.0 223.0 L 112.0 224.0 L 98.0 227.0 L 84.0 228.0 L 81.0 229.0 L 80.0 231.0 L 97.0 239.0 L 107.0 235.0 L 140.0 226.0 Z M 311.0 216.0 L 334.0 219.0 L 335.0 220.0 L 350.0 221.0 L 351.0 222.0 L 380.0 224.0 L 396.0 216.0 L 398.0 213.0 L 393.0 212.0 L 315.0 212.0 L 312.0 213.0 Z M 44.0 213.0 L 46.0 216.0 L 61.0 224.0 L 84.0 223.0 L 100.0 220.0 L 130.0 217.0 L 133.0 215.0 L 128.0 212.0 L 54.0 212.0 L 53.0 213.0 Z M 433.0 192.0 L 351.0 194.0 L 350.0 195.0 L 307.0 195.0 L 298.0 199.0 L 275.0 223.0 L 258.0 238.0 L 246.0 243.0 L 242.0 235.0 L 239.0 234.0 L 241.0 252.0 L 245.0 252.0 L 269.0 237.0 L 298.0 208.0 L 306.0 203.0 L 310.0 202.0 L 420.0 203.0 L 433.0 194.0 Z M 10.0 192.0 L 14.0 197.0 L 22.0 203.0 L 134.0 202.0 L 145.0 208.0 L 174.0 237.0 L 199.0 252.0 L 202.0 252.0 L 204.0 249.0 L 204.0 238.0 L 205.0 237.0 L 203.0 234.0 L 198.0 243.0 L 185.0 238.0 L 149.0 202.0 L 136.0 195.0 L 96.0 195.0 L 95.0 194.0 Z M 219.0 144.0 L 210.0 146.0 L 201.0 151.0 L 201.0 153.0 L 204.0 156.0 L 219.0 163.0 L 219.0 211.0 L 217.0 212.0 L 192.0 197.0 L 192.0 201.0 L 199.0 218.0 L 208.0 225.0 L 211.0 235.0 L 219.0 253.0 L 221.0 255.0 L 223.0 255.0 L 225.0 253.0 L 230.0 241.0 L 234.0 227.0 L 246.0 215.0 L 246.0 212.0 L 250.0 204.0 L 251.0 197.0 L 249.0 197.0 L 237.0 206.0 L 226.0 212.0 L 224.0 210.0 L 224.0 186.0 L 225.0 185.0 L 224.0 184.0 L 224.0 167.0 L 225.0 163.0 L 240.0 155.0 L 242.0 153.0 L 242.0 150.0 L 234.0 146.0 Z M 241.0 210.0 L 242.0 211.0 L 230.0 221.0 L 227.0 236.0 L 225.0 238.0 L 224.0 237.0 L 225.0 235.0 L 225.0 220.0 L 234.0 213.0 Z M 202.0 210.0 L 209.0 213.0 L 218.0 219.0 L 219.0 224.0 L 219.0 237.0 L 218.0 238.0 L 216.0 235.0 L 214.0 222.0 L 210.0 218.0 L 207.0 217.0 L 201.0 211.0 Z M 206.0 152.0 L 215.0 148.0 L 219.0 148.0 L 220.0 149.0 L 220.0 157.0 L 218.0 159.0 L 215.0 158.0 Z M 224.0 157.0 L 224.0 148.0 L 225.0 147.0 L 232.0 149.0 L 237.0 152.0 L 228.0 158.0 Z" fill="#85D66C"/>
  </g>
</svg>
